<?xml version="1.0" encoding="UTF-8"?>
<svg id="Layer_2" data-name="Layer 2" xmlns="http://www.w3.org/2000/svg" xmlns:xlink="http://www.w3.org/1999/xlink" viewBox="0 0 80 80">
  <defs>
    <style>
      .cls-1 {
        fill: url(#linear-gradient-2);
      }

      .cls-2 {
        fill: url(#linear-gradient);
      }
    </style>
    <linearGradient id="linear-gradient" x1="21.54" y1="39.99" x2="58.09" y2="39.99" gradientUnits="userSpaceOnUse">
      <stop offset="0" stop-color="#ea4c46"/>
      <stop offset="1" stop-color="#dc1c13"/>
    </linearGradient>
    <linearGradient id="linear-gradient-2" x1="0" y1="40" x2="80" y2="40" xlink:href="#linear-gradient"/>
  </defs>
  <g id="Layer_1-2" data-name="Layer 1">
    <g>
      <path class="cls-2" d="M56.73,57.73c-1.3,.88-2.9,.7-4.1-.52-3.8-3.75-7.58-7.55-11.35-11.33-.48-.48-.92-.95-1.5-1.55-.45,.53-.85,1-1.3,1.43-3.75,3.78-7.53,7.5-11.25,11.28-1.02,1.05-2.17,1.47-3.6,1.1-2.4-1.2-2.8-3.57-.87-5.48,3.98-4,7.98-8,11.97-12,.2-.2,.45-.35,.7-.58-.25-.27-.42-.48-.62-.67-4.08-4.08-8.15-8.15-12.2-12.23-1.67-1.65-1.28-4.2,.75-5.15,1.22-.6,2.58-.35,3.63,.72,2.4,2.35,4.77,4.75,7.15,7.13,1.88,1.88,3.75,3.75,5.68,5.67,.2-.2,.42-.37,.6-.57,4.02-4.02,8.05-8.03,12.05-12.05,1.85-1.82,3.93-1.6,5.37,.57,.55,1.5,.18,2.75-.95,3.9-4.03,3.98-8,7.98-12,11.98-.2,.2-.45,.35-.72,.55,1.4,1.38,2.68,2.65,3.93,3.9,3,3,5.98,5.98,8.95,8.98,1.52,1.52,1.37,3.78-.3,4.92Z"/>
      <path class="cls-1" d="M40,0C17.9,0,0,17.9,0,40s17.9,40,40,40,40-17.92,40-40S62.08,0,40,0Zm-.2,73.05c-18.25,0-33.05-14.8-33.05-33.05S21.55,6.93,39.8,6.93s33.07,14.8,33.07,33.07-14.8,33.05-33.07,33.05Z"/>
    </g>
  </g>
</svg>