<?xml version="1.0" encoding="UTF-8"?>
<svg id="Layer_2" data-name="Layer 2" xmlns="http://www.w3.org/2000/svg" xmlns:xlink="http://www.w3.org/1999/xlink" viewBox="0 0 200 79.27">
  <defs>
    <style>
      .cls-1 {
        letter-spacing: -.04em;
      }

      .cls-2 {
        font-family: Arial-BoldMT, Arial;
        font-size: 10.27px;
        font-weight: 700;
      }

      .cls-3 {
        fill: url(#linear-gradient);
      }

      .cls-4 {
        letter-spacing: 0em;
      }

      .cls-5 {
        letter-spacing: -.07em;
      }
    </style>
    <linearGradient id="linear-gradient" x1="98.44" y1="63.54" x2="98.44" y2="0" gradientUnits="userSpaceOnUse">
      <stop offset="0" stop-color="#5b58a6"/>
      <stop offset=".26" stop-color="#5a5ba8"/>
      <stop offset=".53" stop-color="#5767b0"/>
      <stop offset=".78" stop-color="#527abd"/>
      <stop offset="1" stop-color="#4c92cd"/>
    </linearGradient>
  </defs>
  <g id="Layer_1-2" data-name="Layer 1">
    <path id="Layer_1-2" data-name="Layer 1-2" class="cls-3" d="M195.97,59.81c-.47-1.36-1.05-2.7-1.61-4.03-1.4-3.27-2.81-6.53-4.22-9.79-1.4-3.18-2.83-6.36-4.23-9.54-.5-1.14-1-2.29-1.51-3.43-.45-1.08-.89-2.14-1.34-3.22-.57-1.31-1.16-2.61-1.73-3.92-.79-1.82-1.57-3.65-2.36-5.48-.58-1.31-1.17-2.61-1.75-3.92-.62-1.44-1.24-2.9-1.87-4.34-.69-1.62-1.38-3.25-2.07-4.86-.91-2.07-1.83-4.13-2.69-6.22-.3-.74-.77-1.04-1.55-1.03-3.14,.02-6.27-.04-9.4,.02-1.92,.04-3.61,.74-4.57,2.48-.83,1.52-1.45,3.16-2.17,4.74-.71,1.63-1.42,3.27-2.13,4.91-.64,1.44-1.28,2.87-1.92,4.31-.55,1.3-1.09,2.61-1.64,3.91-.83,1.89-1.66,3.79-2.49,5.69-1.17,2.68-2.35,5.35-3.52,8.04-4.08,9.44-8.17,18.89-12.24,28.34-.12,.28-.12,.61-.19,.98,.38,.04,.66,.09,.95,.09,3.5,0,7,0,10.49-.02,.52,0,1.05-.03,1.55-.13,2.37-.48,3.71-2.13,4.63-4.2,.89-2.01,1.73-4.04,2.54-6.07,.23-.59,.51-.81,1.18-.81,8.53,.03,17.07,.03,25.6,0,.66,0,1.03,.15,1.3,.82,1.22,2.99,2.5,5.94,3.76,8.91,.33,.78,.74,1.47,1.71,1.47,3.7,0,7.39,.04,11.08-.04,2.23-.05,3.17-1.52,2.43-3.67h0Zm-41.62-19.18c.9-2.17,1.79-4.34,2.7-6.51,1.11-2.61,2.23-5.22,3.35-7.83,.71-1.57,1.43-3.13,2.13-4.7,.1-.2,.21-.39,.39-.74,.8,1.77,1.54,3.41,2.29,5.06,.6,1.36,1.2,2.73,1.8,4.1,.48,1.1,.95,2.22,1.44,3.32,.46,1.05,.91,2.09,1.36,3.13,.57,1.36,1.12,2.73,1.71,4.17h-17.17ZM138.98,1.41c0,.98-.02,1.96-.03,2.93v2.55c-.06,.91-.13,1.83-.2,2.74-.41,1.77-1.99,2.93-4.04,2.93-5.15,0-10.29,0-15.44,0-.43,0-.97-.15-.93,.59v22.14c0,7.98,.05,15.96,0,23.96,0,2.74-1.52,4.21-4.24,4.25-3.36,.05-6.73,0-10.08,.04-.72,0-1.02-.29-1.01-.97,0-.26,0-.52,0-.78,0-8.51,0-17.02,0-25.53,0-.39,.03-.78,.04-1.17V12.96c-.35-.13-.7-.38-1.05-.38-6.14-.02-12.29-.02-18.42-.02-.87,0-1.31-.42-1.31-1.27,0-.56,.02-1.1,.04-1.66V4.34c-.12-2.61,1.58-4.3,4.39-4.31C94.87,.03,103.03,.04,111.2,.04h26.37c1.32,0,1.41,.08,1.4,1.37h0Zm-55.73,29.37c-.03,1.7-.04,3.41-.07,5.11-.22,3.86-.81,7.64-2.05,11.31-1.1,3.26-2.81,6.14-5.07,8.75-3.39,3.9-7.88,5.62-12.71,6.74-3.05,.71-6.16,.85-9.29,.84-9.09-.02-18.17,0-27.26,0-1.42,0-1.58-.19-1.53-1.57,.07-2.31,.1-4.63,.14-6.94,.04-2.13,1.14-3.67,2.96-4.02,.86-.16,1.75-.21,2.63-.21,7.55-.02,15.1,.05,22.66-.06,3.45-.05,6.73-.91,9.41-3.32,2-1.79,2.95-4.14,3.52-6.66,.37-1.61,.57-3.25,.83-4.87,.07-1.7,.13-3.39,.2-5.09-.13-1.76-.26-3.52-.39-5.28-.41-1.77-.82-3.52-1.22-5.29-.85-1.87-1.84-3.64-3.54-4.89-3-2.04-6.39-2.73-9.94-2.74-8.57-.04-17.16-.02-25.73-.02-1.47,0-1.49-.02-1.4-1.56-.03-1.37-.06-2.74-.09-4.12,.04-1.26-.04-2.55,.17-3.78C25.77,1.27,27.44,.05,29.56,.05c8.92-.02,17.84-.12,26.75,.04,5.18,.09,10.24,1.1,14.83,3.7,1.45,.83,2.74,1.93,4.12,2.9,1.11,1.36,2.22,2.73,3.33,4.09,.71,1.45,1.43,2.9,2.13,4.34,.48,1.63,.94,3.26,1.42,4.89,.29,1.76,.57,3.52,.86,5.27,.09,1.84,.17,3.67,.25,5.51Zm-60.4,15.77c0,1.12-.56,1.61-1.66,1.7-1.7,.13-3.48,.1-5.1,.57-2.7,.76-5.16,3.98-5,7.16,.07,1.7,.02,3.39,0,5.09,0,1.1-.71,1.84-1.81,1.85-2.26,.03-4.51,.03-6.76,.02-1.06,0-1.8-.73-1.81-1.75-.04-2.35-.04-4.7-.04-7.05,0-1.11,.72-1.76,1.86-1.79,1.92-.05,3.88,.12,5.75-.22,5.61-1.01,8.22-7.08,5.12-11.76-1.45-2.19-3.28-4.02-5.78-5.05-.32-.13-.68-.16-1.03-.24-1.3,0-2.61,.04-3.91,.03-1,0-1.57-.58-1.58-1.56-.02-1.63-.03-3.26-.03-4.89,0-1.17,.4-1.55,1.6-1.58,1.46-.04,2.93-.08,4.4-.13,1.5-.04,2.07,.5,2.06,2.02-.03,1.92-.15,3.85,1,5.55,1.87,2.51,4.1,4.63,7.2,5.5,.98,.27,2.05,.26,3.08,.23,1.82-.04,2.35,.38,2.4,2.21,.04,1.37,.05,2.74,.04,4.11h0Zm24.31-12.44c-.24,2.53-2.77,5.23-5.52,5.87-.6,.13-1.22,.2-1.83,.21-4.67,0-9.34,0-14,0h-.96v-6.07c-.21-1.7-.4-3.4-.61-5.09-.87-1.76-1.73-3.52-2.6-5.28-1.44-1.28-2.82-2.65-4.33-3.83-.84-.65-1.92-1.01-2.89-1.51-2.12-.83-4.33-1.01-6.58-.97-2.12,.04-4.23,0-6.48,0V1.49h15.78V3.76c0,1.17,0,2.35,0,3.52,.04,.83,.07,1.67,.11,2.51,.25,1.18,.5,2.36,.74,3.54,.79,1.5,1.58,3,2.37,4.49,1.56,1.86,3.28,3.52,5.39,4.74,.42,.24,.83,.48,1.25,.73,3.9,1.83,8.06,1.37,12.17,1.42,1.54,0,3,.34,4.35,1.12,1.32,.77,2.38,1.79,3.04,3.18,.87,1.61,1.1,3.31,.61,5.09Z"/>
    <text class="cls-2" transform="translate(0 75.4)"><tspan x="0" y="0">D</tspan><tspan class="cls-5" x="7.41" y="0">AT</tspan><tspan class="cls-1" x="19.58" y="0">A</tspan><tspan x="26.61" y="0" xml:space="preserve"> TECHNOLOGIES &amp;</tspan><tspan class="cls-1" x="121.86" y="0"> </tspan><tspan x="124.33" y="0">APPLIC</tspan><tspan class="cls-5" x="161.98" y="0">A</tspan><tspan class="cls-4" x="168.63" y="0">TIONS</tspan></text>
  </g>
</svg>