<?xml version="1.0" encoding="UTF-8"?>
<svg id="Layer_2" data-name="Layer 2" xmlns="http://www.w3.org/2000/svg" xmlns:xlink="http://www.w3.org/1999/xlink" viewBox="0 0 80 71.46">
  <defs>
    <style>
      .cls-1 {
        fill: url(#linear-gradient-2);
      }

      .cls-2 {
        fill: url(#linear-gradient-3);
      }

      .cls-3 {
        fill: url(#linear-gradient);
      }
    </style>
    <linearGradient id="linear-gradient" x1="0" y1="35.73" x2="80" y2="35.73" gradientUnits="userSpaceOnUse">
      <stop offset="0" stop-color="#ffd805"/>
      <stop offset="1" stop-color="#eda124"/>
    </linearGradient>
    <linearGradient id="linear-gradient-2" x1="35.62" y1="34.69" x2="44.33" y2="34.69" xlink:href="#linear-gradient"/>
    <linearGradient id="linear-gradient-3" x1="35.57" y1="55.77" x2="44.4" y2="55.77" xlink:href="#linear-gradient"/>
  </defs>
  <g id="Layer_1-2" data-name="Layer 1">
    <g>
      <path class="cls-3" d="M40.05,71.45c-10.31,0-20.63,0-30.94,0-.7,0-1.41,0-2.1-.07-5.55-.61-8.45-5.27-6.3-10.42,.97-2.32,2.37-4.47,3.64-6.67C13.78,37.92,23.22,21.57,32.66,5.21c.16-.28,.34-.55,.51-.83,3.69-5.85,10.07-5.86,13.67,.06,2.5,4.1,4.83,8.3,7.23,12.46,7.99,13.83,15.98,27.66,23.94,41.51,.72,1.25,1.37,2.6,1.73,3.99,1,3.94-1.02,7.44-4.92,8.58-1.22,.36-2.55,.46-3.83,.46-10.31,.04-20.63,.02-30.94,.02Zm-.05-5.62c10.26,0,20.52,0,30.78-.01,.8,0,1.62-.09,2.4-.27,1.01-.25,1.39-.98,1.07-1.98-.18-.56-.42-1.12-.71-1.62-10.43-18.09-20.87-36.18-31.32-54.26-1.53-2.65-2.83-2.63-4.41-.02-.06,.09-.1,.19-.16,.28C27.33,25.79,17.02,43.64,6.72,61.5c-1.9,3.29-1.29,4.34,2.5,4.34,10.26,0,20.52,0,30.78,0Z"/>
      <path class="cls-1" d="M35.78,27.97c-.06-.75-.15-1.5-.16-2.26-.05-2.62,1.83-4.61,4.35-4.62,2.56-.02,4.53,1.89,4.35,4.56-.41,6.02-.99,12.02-1.5,18.03-.05,.64-.12,1.29-.2,1.93-.2,1.69-1.21,2.71-2.67,2.69-1.4-.02-2.36-.97-2.53-2.63-.61-5.89-1.18-11.79-1.76-17.69,.04,0,.08,0,.12-.01Z"/>
      <path class="cls-2" d="M40.02,60.18c-2.45,.01-4.44-1.95-4.45-4.37,0-2.4,2-4.43,4.4-4.46,2.39-.03,4.41,1.99,4.42,4.41,.01,2.46-1.91,4.4-4.38,4.41Z"/>
    </g>
  </g>
</svg>